HIERARCHY
ROOT Hips
{
  OFFSET 5.72205e-005 65.662 3.42586
  CHANNELS 6 Xposition Yposition Zposition Zrotation Xrotation Yrotation
  JOINT Chest
  {
    OFFSET 0 8.7983 -4.7612
    CHANNELS 6 Xposition Yposition Zposition Zrotation Xrotation Yrotation
    JOINT Chest2
    {
      OFFSET 0 8.0291 0.4195
      CHANNELS 6 Xposition Yposition Zposition Zrotation Xrotation Yrotation
      JOINT Chest3
      {
        OFFSET 0 9.9351 -2.2114
        CHANNELS 6 Xposition Yposition Zposition Zrotation Xrotation Yrotation
        JOINT Neck
        {
          OFFSET 0 22.3885 -0.4656
          CHANNELS 6 Xposition Yposition Zposition Zrotation Xrotation Yrotation
          JOINT Head
          {
            OFFSET -0.0001 12.643 3.4389
            CHANNELS 6 Xposition Yposition Zposition Zrotation Xrotation Yrotation
            End Site
            {
              OFFSET 0.0001 17.6655 0.5274
            }
          }
        }
        JOINT LeftCollar
        {
          OFFSET 2.2603 21.606 7.4023
          CHANNELS 6 Xposition Yposition Zposition Zrotation Xrotation Yrotation
          JOINT LeftShoulder
          {
            OFFSET 13.5163 -1.1332 -5.0146
            CHANNELS 6 Xposition Yposition Zposition Zrotation Xrotation Yrotation
            JOINT LeftElbow
            {
              OFFSET -0.0995 -28.05 -0.2431
              CHANNELS 6 Xposition Yposition Zposition Zrotation Xrotation Yrotation
              JOINT LeftWrist
              {
                OFFSET 0.0679 -23.3996 -0.1402
                CHANNELS 6 Xposition Yposition Zposition Zrotation Xrotation Yrotation
                JOINT LeftFinger1
                {
                  OFFSET 0.7932 -9.069 2.5189
                  CHANNELS 6 Xposition Yposition Zposition Zrotation Xrotation Yrotation
                  JOINT LeftFinger11
                  {
                    OFFSET -0.8272 -3.3923 0.5977
                    CHANNELS 6 Xposition Yposition Zposition Zrotation Xrotation Yrotation
                    JOINT LeftFinger12
                    {
                      OFFSET -0.5649 -2.3158 0.4082
                      CHANNELS 6 Xposition Yposition Zposition Zrotation Xrotation Yrotation
                      End Site
                      {
                        OFFSET -0.4919 -1.6479 0.2673
                      }
                    }
                  }
                }
                JOINT LeftFinger2
                {
                  OFFSET 0.9159 -9.2044 0.2193
                  CHANNELS 6 Xposition Yposition Zposition Zrotation Xrotation Yrotation
                  JOINT LeftFinger21
                  {
                    OFFSET 0.0117 -4.1944 -0.0248
                    CHANNELS 6 Xposition Yposition Zposition Zrotation Xrotation Yrotation
                    JOINT LeftFinger22
                    {
                      OFFSET 0.0071 -2.3249 -0.0142
                      CHANNELS 6 Xposition Yposition Zposition Zrotation Xrotation Yrotation
                      End Site
                      {
                        OFFSET -0.1475 -2.0882 0.0028
                      }
                    }
                  }
                }
                JOINT LeftFinger3
                {
                  OFFSET 0.6113 -8.7231 -2.0637
                  CHANNELS 6 Xposition Yposition Zposition Zrotation Xrotation Yrotation
                  JOINT LeftFinger31
                  {
                    OFFSET -0.1927 -3.8059 -0.2383
                    CHANNELS 6 Xposition Yposition Zposition Zrotation Xrotation Yrotation
                    JOINT LeftFinger32
                    {
                      OFFSET -0.1091 -2.1688 -0.1362
                      CHANNELS 6 Xposition Yposition Zposition Zrotation Xrotation Yrotation
                      End Site
                      {
                        OFFSET -0.2358 -1.9176 -0.0906
                      }
                    }
                  }
                }
                JOINT LeftFinger4
                {
                  OFFSET -0.6151 -8.0947 -3.5641
                  CHANNELS 6 Xposition Yposition Zposition Zrotation Xrotation Yrotation
                  JOINT LeftFinger41
                  {
                    OFFSET -0.4882 -2.341 -0.6462
                    CHANNELS 6 Xposition Yposition Zposition Zrotation Xrotation Yrotation
                    JOINT LeftFinger42
                    {
                      OFFSET -0.3575 -1.7167 -0.4742
                      CHANNELS 6 Xposition Yposition Zposition Zrotation Xrotation Yrotation
                      End Site
                      {
                        OFFSET -0.4187 -1.5237 -0.3496
                      }
                    }
                  }
                }
                JOINT LeftFinger0
                {
                  OFFSET -1.42 -1.8761 1.4223
                  CHANNELS 6 Xposition Yposition Zposition Zrotation Xrotation Yrotation
                  JOINT LeftFinger01
                  {
                    OFFSET -1.1471 -3.4929 2.6334
                    CHANNELS 6 Xposition Yposition Zposition Zrotation Xrotation Yrotation
                    JOINT LeftFinger02
                    {
                      OFFSET -0.823 -2.3 1.6571
                      CHANNELS 6 Xposition Yposition Zposition Zrotation Xrotation Yrotation
                      End Site
                      {
                        OFFSET -0.5822 -1.6914 1.1582
                      }
                    }
                  }
                }
              }
            }
          }
        }
        JOINT RightCollar
        {
          OFFSET -2.2603 21.606 7.4023
          CHANNELS 6 Xposition Yposition Zposition Zrotation Xrotation Yrotation
          JOINT RightShoulder
          {
            OFFSET -13.5187 -1.1334 -5.0155
            CHANNELS 6 Xposition Yposition Zposition Zrotation Xrotation Yrotation
            JOINT RightElbow
            {
              OFFSET 0.0994 -28.0499 -0.2431
              CHANNELS 6 Xposition Yposition Zposition Zrotation Xrotation Yrotation
              JOINT RightWrist
              {
                OFFSET -0.0679 -23.3996 -0.1402
                CHANNELS 6 Xposition Yposition Zposition Zrotation Xrotation Yrotation
                JOINT RightFinger1
                {
                  OFFSET -0.7932 -9.0691 2.5189
                  CHANNELS 6 Xposition Yposition Zposition Zrotation Xrotation Yrotation
                  JOINT RightFinger11
                  {
                    OFFSET 0.8272 -3.3923 0.5977
                    CHANNELS 6 Xposition Yposition Zposition Zrotation Xrotation Yrotation
                    JOINT RightFinger12
                    {
                      OFFSET 0.565 -2.3158 0.4082
                      CHANNELS 6 Xposition Yposition Zposition Zrotation Xrotation Yrotation
                      End Site
                      {
                        OFFSET 0.4919 -1.6479 0.2673
                      }
                    }
                  }
                }
                JOINT RightFinger2
                {
                  OFFSET -0.916 -9.2044 0.2193
                  CHANNELS 6 Xposition Yposition Zposition Zrotation Xrotation Yrotation
                  JOINT RightFinger21
                  {
                    OFFSET -0.0117 -4.1944 -0.0248
                    CHANNELS 6 Xposition Yposition Zposition Zrotation Xrotation Yrotation
                    JOINT RightFinger22
                    {
                      OFFSET -0.0071 -2.3249 -0.0142
                      CHANNELS 6 Xposition Yposition Zposition Zrotation Xrotation Yrotation
                      End Site
                      {
                        OFFSET 0.1475 -2.0882 0.0028
                      }
                    }
                  }
                }
                JOINT RightFinger3
                {
                  OFFSET -0.6113 -8.7231 -2.0637
                  CHANNELS 6 Xposition Yposition Zposition Zrotation Xrotation Yrotation
                  JOINT RightFinger31
                  {
                    OFFSET 0.1927 -3.8059 -0.2383
                    CHANNELS 6 Xposition Yposition Zposition Zrotation Xrotation Yrotation
                    JOINT RightFinger32
                    {
                      OFFSET 0.1091 -2.1688 -0.1362
                      CHANNELS 6 Xposition Yposition Zposition Zrotation Xrotation Yrotation
                      End Site
                      {
                        OFFSET 0.2358 -1.9176 -0.0906
                      }
                    }
                  }
                }
                JOINT RightFinger4
                {
                  OFFSET 0.6151 -8.0947 -3.564
                  CHANNELS 6 Xposition Yposition Zposition Zrotation Xrotation Yrotation
                  JOINT RightFinger41
                  {
                    OFFSET 0.4882 -2.341 -0.6462
                    CHANNELS 6 Xposition Yposition Zposition Zrotation Xrotation Yrotation
                    JOINT RightFinger42
                    {
                      OFFSET 0.3574 -1.7166 -0.4742
                      CHANNELS 6 Xposition Yposition Zposition Zrotation Xrotation Yrotation
                      End Site
                      {
                        OFFSET 0.4187 -1.5237 -0.3496
                      }
                    }
                  }
                }
                JOINT RightFinger0
                {
                  OFFSET 1.4199 -1.8761 1.4221
                  CHANNELS 6 Xposition Yposition Zposition Zrotation Xrotation Yrotation
                  JOINT RightFinger01
                  {
                    OFFSET 1.1472 -3.4929 2.6336
                    CHANNELS 6 Xposition Yposition Zposition Zrotation Xrotation Yrotation
                    JOINT RightFinger02
                    {
                      OFFSET 0.8229 -2.3 1.6571
                      CHANNELS 6 Xposition Yposition Zposition Zrotation Xrotation Yrotation
                      End Site
                      {
                        OFFSET 0.5822 -1.6914 1.1582
                      }
                    }
                  }
                }
              }
            }
          }
        }
      }
    }
  }
  JOINT RightHip
  {
    OFFSET -9.412 3.9771 -0.7758
    CHANNELS 6 Xposition Yposition Zposition Zrotation Xrotation Yrotation
    JOINT RightKnee
    {
      OFFSET -0.7531 -40.938 0
      CHANNELS 6 Xposition Yposition Zposition Zrotation Xrotation Yrotation
      JOINT RightAnkle
      {
        OFFSET 0 -40.1986 0
        CHANNELS 6 Xposition Yposition Zposition Zrotation Xrotation Yrotation
        JOINT RightToe
        {
          OFFSET 0 -4.4182 9.239
          CHANNELS 6 Xposition Yposition Zposition Zrotation Xrotation Yrotation
          End Site
          {
            OFFSET 0 0 6.1981
          }
        }
      }
    }
  }
  JOINT LeftHip
  {
    OFFSET 9.4119 3.9773 -0.7758
    CHANNELS 6 Xposition Yposition Zposition Zrotation Xrotation Yrotation
    JOINT LeftKnee
    {
      OFFSET 0.7532 -40.9383 0
      CHANNELS 6 Xposition Yposition Zposition Zrotation Xrotation Yrotation
      JOINT LeftAnkle
      {
        OFFSET 0 -40.1986 0
        CHANNELS 6 Xposition Yposition Zposition Zrotation Xrotation Yrotation
        JOINT LeftToe
        {
          OFFSET 0 -4.4182 9.239
          CHANNELS 6 Xposition Yposition Zposition Zrotation Xrotation Yrotation
          End Site
          {
            OFFSET 0 0 6.1981
          }
        }
      }
    }
  }
}
MOTION
Frames:	4
Frame Time:	0.0333333
5.72205e-005 65.662 3.42586 0 0 -0 0 8.7983 -4.7612 0 0 -0 0 8.0291 0.4195 0 0 -0 0 9.9351 -2.2114 0 0 -0 0 22.3885 -0.4656 0 0 -0 -0.0001 12.643 3.4389 0 0 -0 2.2603 21.606 7.4023 0 0 -12.5014 13.5163 -1.1332 -5.0146 88.1196 14.2451 10.6914 -0.0995 -28.05 -0.2431 -0.00160068 -0.00239207 0.000740045 0.0679 -23.3996 -0.1402 -8.4365e-005 7.00714e-005 -9.52055e-007 0.7932 -9.069 2.5189 9.93923e-017 -1.98785e-016 -1.59028e-015 -0.8272 -3.3923 0.5977 9.93923e-017 -5.96354e-016 -1.59028e-015 -0.5649 -2.3158 0.4082 -9.93923e-017 -5.96354e-016 -1.59028e-015 0.9159 -9.2044 0.2193 9.93923e-017 -1.98785e-016 -1.59028e-015 0.0117 -4.1944 -0.0248 -0.0128176 0.00232552 8.52707e-005 0.0071 -2.3249 -0.0142 9.93923e-017 5.96354e-016 -0 0.6113 -8.7231 -2.0637 9.93923e-017 -1.98785e-016 -1.59028e-015 -0.1927 -3.8059 -0.2383 -0.0160551 0.00299681 0.000857156 -0.1091 -2.1688 -0.1362 -2.48481e-016 0 3.18055e-015 -0.6151 -8.0947 -3.5641 9.93923e-017 -1.98785e-016 -1.59028e-015 -0.4882 -2.341 -0.6462 -0.0125865 0.0031206 0.00282719 -0.3575 -1.7167 -0.4742 0 1.98785e-016 -0 -1.42 -1.8761 1.4223 9.93923e-017 -1.98785e-016 -1.59028e-015 -1.1471 -3.4929 2.6334 9.93923e-017 -5.96354e-016 -1.59028e-015 -0.823 -2.3 1.6571 -9.93923e-017 -5.96354e-016 -1.59028e-015 -2.2603 21.606 7.4023 -0.865644 0.16582 7.03859 -13.5187 -1.1334 -5.0155 -88.0329 10.2057 -10.5567 0.0994 -28.0499 -0.2431 0.0015593 -0.00248883 -0.000788628 -0.0679 -23.3996 -0.1402 7.87605e-005 4.10553e-005 1.24965e-005 -0.7932 -9.0691 2.5189 -3.97569e-016 -7.95139e-016 3.18055e-015 0.8272 -3.3923 0.5977 -1.98785e-016 -3.97569e-016 3.18055e-015 0.565 -2.3158 0.4082 -1.98785e-016 0 3.18055e-015 -0.916 -9.2044 0.2193 -3.97569e-016 -7.95139e-016 3.18055e-015 -0.0117 -4.1944 -0.0248 0.0129473 0.00231697 -8.70038e-005 -0.0071 -2.3249 -0.0142 9.93923e-017 -7.95139e-016 1.59028e-015 -0.6113 -8.7231 -2.0637 -3.97569e-016 -7.95139e-016 3.18055e-015 0.1927 -3.8059 -0.2383 0.0163314 0.00303369 -0.000872333 0.1091 -2.1688 -0.1362 3.97569e-016 7.95139e-016 -3.18055e-015 0.6151 -8.0947 -3.564 -3.97569e-016 -7.95139e-016 3.18055e-015 0.4882 -2.341 -0.6462 0.0145763 0.00367772 -0.00326275 0.3574 -1.7166 -0.4742 9.93923e-017 -3.97569e-016 -0 1.4199 -1.8761 1.4221 -3.97569e-016 -7.95139e-016 3.18055e-015 1.1472 -3.4929 2.6336 -1.98785e-016 -3.97569e-016 3.18055e-015 0.8229 -2.3 1.6571 -1.98785e-016 0 3.18055e-015 -9.412 3.9771 -0.7758 3.42482 1.32465 -0.0626183 -0.7531 -40.938 0 0.000117508 0.717283 0.000978199 0 -40.1986 0 -3.4257 -2.04197 -0.0604716 8.88178e-016 -4.4182 9.239 6.47761e-025 0 -0 9.4119 3.9773 -0.7758 -3.42483 1.34017 0.0627307 0.7532 -40.9383 -2.22045e-016 -0.000193936 0.682302 -0.0013703 -8.88179e-016 -40.1986 0 3.42574 -2.02253 0.0595886 -8.88178e-016 -4.4182 9.239 -8.45714e-024 0 -7.40531e-025 
0.0154806 47.3462 6.88382 4.89047e-008 -22.8788 6.11776e-008 -1.73472e-018 8.7983 -4.7612 -0.109124 -0.0555415 -0.0914961 6.93889e-018 8.0291 0.4195 -0.218345 -0.110892 -0.183105 0 9.9351 -2.2114 -0.218338 -0.110907 -0.183098 -5.55112e-017 22.3885 -0.4656 -0.00262156 -0.0593662 0.679467 -0.0001 12.643 3.4389 -0.00161699 -0.234493 0.603394 2.2603 21.606 7.4023 -7.70009 -0.06112 -13.6121 13.5163 -1.1332 -5.0146 81.3488 11.5865 11.5144 -0.0995 -28.05 -0.2431 -19.5406 -1.02274 -2.75453 0.0679 -23.3996 -0.1402 -1.34217 2.8362 -11.5019 0.7932 -9.069 2.5189 -4.06771e-006 4.67072e-006 2.03329e-006 -0.8272 -3.3923 0.5977 2.07808e-006 -2.96683e-006 -3.84597e-007 -0.5649 -2.3158 0.4082 -5.07981e-007 3.44771e-006 -1.58997e-006 0.9159 -9.2044 0.2193 -4.06771e-006 4.67072e-006 2.03329e-006 0.0117 -4.1944 -0.0248 -0.0127864 0.00231675 8.54729e-005 0.0071 -2.3249 -0.0142 5.65808e-006 -7.86706e-007 -3.33511e-009 0.6113 -8.7231 -2.0637 -4.06771e-006 4.67072e-006 2.03329e-006 -0.1927 -3.8059 -0.2383 -0.0160991 0.00300495 0.000859909 -0.1091 -2.1688 -0.1362 -2.53999e-007 1.75996e-006 -7.94996e-007 -0.6151 -8.0947 -3.5641 -4.06771e-006 4.67072e-006 2.03329e-006 -0.4882 -2.341 -0.6462 -0.0126452 0.00313405 0.00283574 -0.3575 -1.7167 -0.4742 5.07973e-007 1.72244e-006 1.58998e-006 -1.42 -1.8761 1.4223 -4.06771e-006 4.67072e-006 2.03329e-006 -1.1471 -3.4929 2.6334 2.07808e-006 -2.96683e-006 -3.84597e-007 -0.823 -2.3 1.6571 -5.07981e-007 3.44771e-006 -1.58997e-006 -2.2603 21.606 7.4023 -8.33444 0.158099 6.87878 -13.5187 -1.1334 -5.0155 -85.1742 9.71831 0.417876 0.0994 -28.0499 -0.2431 11.6063 -8.87988 8.06672 -0.0679 -23.3996 -0.1402 2.83102 6.92678 0.0490225 -0.7932 -9.0691 2.5189 1.40254e-005 8.28108e-007 -7.33354e-007 0.8272 -3.3923 0.5977 1.19271e-015 8.71087e-007 -0 0.565 -2.3158 0.4082 -2.84109e-008 4.39117e-007 -8.27896e-007 -0.916 -9.2044 0.2193 1.40254e-005 8.28108e-007 -7.33354e-007 -0.0117 -4.1944 -0.0248 0.0128969 0.00230907 -8.63898e-005 -0.0071 -2.3249 -0.0142 3.57812e-015 0 1.59028e-015 -0.6113 -8.7231 -2.0637 1.40254e-005 8.28108e-007 -7.33354e-007 0.1927 -3.8059 -0.2383 0.0163043 0.00303081 -0.000869344 0.1091 -2.1688 -0.1362 2.78299e-015 0 6.36111e-015 0.6151 -8.0947 -3.564 1.40254e-005 8.28108e-007 -7.33354e-007 0.4882 -2.341 -0.6462 0.0145375 0.00366983 -0.00325398 0.3574 -1.7166 -0.4742 -4.96962e-016 1.19271e-015 -1.59028e-015 1.4199 -1.8761 1.4221 1.40254e-005 8.28108e-007 -7.33354e-007 1.1472 -3.4929 2.6336 1.19271e-015 8.71087e-007 -0 0.8229 -2.3 1.6571 -2.84109e-008 4.39117e-007 -8.27896e-007 -9.412 3.9771 -0.7758 0.612826 2.19874 -0.139453 -0.7531 -40.938 0 0.596688 1.20491 -0.145038 -1.77636e-015 -40.1986 3.55271e-015 -3.31607 5.87244 0.76588 8.88178e-016 -4.4182 9.239 -1.73937e-016 4.77083e-015 9.93923e-017 9.4119 3.9773 -0.7758 1.31764 -1.18402 1.93895 0.7532 -40.9383 -7.10543e-015 -2.94294 9.65042 2.7489 0 -40.1986 3.55271e-015 3.33518 5.24232 -0.682002 1.77636e-015 -4.4182 9.239 -5.26916e-008 3.34667e-009 8.41696e-009 
0.0224567 29.072 9.37559 3.19964e-009 -47.2277 4.35884e-009 -3.46945e-018 8.7983 -4.7612 -0.226329 -0.115438 -0.189161 3.46945e-018 8.0291 0.4195 -0.45304 -0.230132 -0.378778 1.38778e-017 9.9351 -2.2114 -0.453032 -0.230128 -0.378771 -2.77556e-017 22.3885 -0.4656 0.000907614 -0.117083 1.36221 -0.0001 12.643 3.4389 0.00679979 -0.469241 1.20744 2.2603 21.606 7.4023 -15.894 -0.124755 -14.7911 13.5163 -1.1332 -5.0146 74.2923 8.57595 12.339 -0.0995 -28.05 -0.2431 -40.2529 -2.34756 -4.43162 0.0679 -23.3996 -0.1402 -2.72084 5.75473 -23.7988 0.7932 -9.069 2.5189 -3.35988e-007 3.7821e-006 -4.71583e-006 -0.8272 -3.3923 0.5977 -6.74291e-007 2.23477e-006 -5.16638e-007 -0.5649 -2.3158 0.4082 -1.01259e-006 -4.54632e-006 3.68255e-006 0.9159 -9.2044 0.2193 -3.35988e-007 3.7821e-006 -4.71583e-006 0.0117 -4.1944 -0.0248 -0.0128053 0.00231628 8.49775e-005 0.0071 -2.3249 -0.0142 1.30738e-006 -1.42226e-006 3.27828e-007 0.6113 -8.7231 -2.0637 -3.35988e-007 3.7821e-006 -4.71583e-006 -0.1927 -3.8059 -0.2383 -0.0160773 0.00300529 0.000867671 -0.1091 -2.1688 -0.1362 -1.01154e-006 4.16536e-006 -5.23244e-006 -0.6151 -8.0947 -3.5641 -3.35988e-007 3.7821e-006 -4.71583e-006 -0.4882 -2.341 -0.6462 -0.0125598 0.00311833 0.00281611 -0.3575 -1.7167 -0.4742 6.84752e-006 -6.70803e-006 1.28787e-008 -1.42 -1.8761 1.4223 -3.35988e-007 3.7821e-006 -4.71583e-006 -1.1471 -3.4929 2.6334 -6.74291e-007 2.23477e-006 -5.16638e-007 -0.823 -2.3 1.6571 -1.01259e-006 -4.54632e-006 3.68255e-006 -2.2603 21.606 7.4023 -16.2797 0.15115 6.71183 -13.5187 -1.1334 -5.0155 -82.1585 9.0395 12.0893 0.0994 -28.0499 -0.2431 24.0829 -18.3315 16.4433 -0.0679 -23.3996 -0.1402 5.78067 14.3041 0.219237 -0.7932 -9.06911 2.5189 -4.77083e-015 -1.59028e-015 -0 0.8272 -3.3923 0.5977 8.79155e-007 -2.85282e-006 -1.12014e-006 0.565 -2.3158 0.4082 4.77083e-015 3.18055e-015 -6.36111e-015 -0.916 -9.2044 0.2193 -4.77083e-015 -1.59028e-015 -0 -0.0117 -4.1944 -0.0248 0.0129868 0.002324 -8.88765e-005 -0.0071 -2.3249 -0.0142 2.38542e-015 -1.59028e-015 3.18055e-015 -0.6113 -8.7231 -2.0637 -4.77083e-015 -1.59028e-015 -0 0.1927 -3.8059 -0.2383 0.016406 0.00304503 -0.000881216 0.1091 -2.1688 -0.1362 1.59028e-015 3.18055e-015 6.36111e-015 0.6151 -8.0947 -3.564 -4.77083e-015 -1.59028e-015 -0 0.4882 -2.341 -0.6462 0.0145808 0.00367842 -0.00326299 0.3574 -1.7166 -0.4742 -2.29505e-007 -1.90319e-006 -1.61129e-006 1.4199 -1.8761 1.4221 -4.77083e-015 -1.59028e-015 -0 1.1472 -3.4929 2.6336 8.79155e-007 -2.85282e-006 -1.12014e-006 0.8229 -2.3 1.6571 4.77083e-015 3.18055e-015 -6.36111e-015 -9.412 3.9771 -0.7758 -2.38361 2.20497 -0.209523 -0.7531 -40.938 0 1.2325 3.41417 -0.330153 -3.55271e-015 -40.1986 0 -3.45439 13.5261 1.66234 1.77636e-015 -4.4182 9.239 -5.7573e-007 -2.3684e-009 -1.76372e-007 9.4119 3.9773 -0.7758 6.61393 -4.40642 3.93507 0.7532 -40.9383 0 -7.14484 20.2377 6.03491 -1.77636e-015 -40.1986 0 3.51387 12.4265 -1.56221 -1.77636e-015 -4.4182 9.239 -3.97569e-016 1.62359e-006 -1.59028e-015 
0.0209002 12.9141 10.2195 3.39414e-008 -69.6164 3.95018e-008 6.9389e-018 8.7983 -4.7612 -0.334112 -0.170766 -0.278424 0 8.0291 0.4195 -0.669053 -0.339905 -0.557842 -2.77556e-017 9.9351 -2.2114 -0.669046 -0.339904 -0.557836 2.22045e-016 22.3885 -0.4656 0.00221119 -0.175527 2.04288 -0.0001 12.643 3.4389 0.0133665 -0.703394 1.81072 2.2603 21.606 7.4023 -23.4323 -0.183775 -15.8767 13.5163 -1.1332 -5.0146 67.939 5.65162 13.042 -0.0995 -28.05 -0.2431 -59.0879 -4.16451 -4.97108 0.0679 -23.3996 -0.1402 -3.95453 8.33907 -35.1598 0.7932 -9.069 2.5189 -2.36848e-006 1.24566e-006 -2.33046e-006 -0.8272 -3.3923 0.5977 -3.18055e-015 7.95139e-016 -2.78299e-015 -0.5649 -2.3158 0.4082 -6.36111e-015 7.95139e-016 -8.74653e-015 0.9159 -9.2044 0.2193 -2.36848e-006 1.24566e-006 -2.33046e-006 0.0117 -4.1944 -0.0248 -0.0128343 0.00233142 9.61965e-005 0.0071 -2.3249 -0.0142 1.28003e-030 1.27222e-014 -5.76476e-015 0.6113 -8.7231 -2.0637 -2.36848e-006 1.24566e-006 -2.33046e-006 -0.1927 -3.8059 -0.2383 -0.0160224 0.0029925 0.000871162 -0.1091 -2.1688 -0.1362 -6.36111e-015 -5.56597e-015 4.96962e-015 -0.6151 -8.0947 -3.5641 -2.36848e-006 1.24566e-006 -2.33046e-006 -0.4882 -2.341 -0.6462 -0.0125822 0.00311471 0.00282954 -0.3575 -1.7167 -0.4742 -4.67259e-006 5.82652e-007 -1.79665e-006 -1.42 -1.8761 1.4223 -2.36848e-006 1.24566e-006 -2.33046e-006 -1.1471 -3.4929 2.6334 -3.18055e-015 7.95139e-016 -2.78299e-015 -0.823 -2.3 1.6571 -6.36111e-015 7.95139e-016 -8.74653e-015 -2.2603 21.606 7.4023 -23.5871 0.144142 6.55686 -13.5187 -1.1334 -5.0155 -79.3861 8.26927 22.8088 0.0994 -28.0499 -0.2431 35.5686 -27.1084 23.9679 -0.0679 -23.3996 -0.1402 8.40986 21.0881 0.501329 -0.7932 -9.0691 2.5189 3.18055e-015 0 3.18055e-015 0.8272 -3.3923 0.5977 -1.59028e-015 1.59028e-015 -6.36111e-015 0.565 -2.3158 0.4082 2.38542e-015 1.59028e-015 -3.18055e-015 -0.916 -9.2044 0.2193 3.18055e-015 0 3.18055e-015 -0.0117 -4.1944 -0.0248 0.0130337 0.00233429 -8.95938e-005 -0.0071 -2.3249 -0.0142 -6.36111e-015 0 3.18055e-015 -0.6113 -8.7231 -2.0637 3.18055e-015 0 3.18055e-015 0.1927 -3.8059 -0.2383 0.0163809 0.00304841 -0.000879239 0.1091 -2.1688 -0.1362 -2.38542e-015 -3.18055e-015 -0 0.6151 -8.0947 -3.564 3.18055e-015 0 3.18055e-015 0.4882 -2.341 -0.6462 0.0145947 0.00368421 -0.00326633 0.3574 -1.7166 -0.4742 -3.97569e-015 0 -1.59028e-014 1.4199 -1.8761 1.4221 3.18055e-015 0 3.18055e-015 1.1472 -3.4929 2.6336 -1.59028e-015 1.59028e-015 -6.36111e-015 0.8229 -2.3 1.6571 2.38542e-015 1.59028e-015 -3.18055e-015 -9.412 3.9771 -0.7758 -5.14423 2.02083 -0.275058 -0.7531 -40.938 0 1.82221 5.86903 -0.524518 1.77636e-015 -40.1986 3.55271e-015 -3.83512 20.3206 2.57503 1.77636e-015 -4.4182 9.239 -8.78396e-007 2.61993e-006 -3.5931e-007 9.4119 3.9773 -0.7758 12.2814 -7.21566 5.7143 0.7532 -40.9383 0 -13.4616 29.6439 10.3104 1.77636e-015 -40.1986 0 4.58384 19.0183 -2.66922 0 -4.4182 9.239 7.95139e-016 9.54166e-015 -0 
